:SAMPLES-PER-SECOND 30
:FULLY-SPECIFIED
:DEGREES
298
root  -74.3471 40.158 -0.333907 177.316 25.4718 176.86
RightUpLeg  -9.6458 14.6095 2.40395
RightLeg  20.9323 22.1325 5.66128
RightFoot  -9.21672 -0.0127949 -2.47875
RightToes  -1.16417e-010 0 -3.6325e-017
Spine  3.57274 0.716727 8.65871
Spine1  7.91442 1.97552 -3.25371
HEad  -17.3788 -12.2606 5.58902
LeftShoulder1  -0.836288 5.66904 -32.4595
LeftArm  13.5053 17.9486 -40.2284
LeftForeArm  21.1823 -21.1254 -4.55479
LeftHand  -0.105087 8.90642 -1.75101
RightShoulder  -0.879656 -6.10184 27.2727
RightArm  27.9274 1.58383 50.7812
RightForeArm  8.45006 30.7914 6.27081
RightHand  -0.0669582 3.75234 -1.11714
LeftUpLeg  -8.51048 -26.1609 2.45159
LeftLeg  23.5206 -2.45137 -0.836915
LeftFoot  -12.8905 0.0752791 -0.0687781
LeftToes  3.13772e-010 -3.14513e-011 3.96022e-013
299
root  -74.8872 40.1368 -0.565005 178.259 33.6193 177.233
RightUpLeg  -11.0793 18.6646 1.54839
RightLeg  20.8524 25.3334 7.08905
RightFoot  -11.1087 -0.0802837 1.06801
RightToes  -1.16417e-010 0 -3.6325e-017
Spine  3.64118 1.02386 8.66245
Spine1  7.45053 2.36135 -4.01494
HEad  -17.8373 -10.3671 6.44094
LeftShoulder1  -0.823258 5.63437 -32.4773
LeftArm  13.1087 19.955 -39.2966
LeftForeArm  22.3149 -24.0917 -3.92996
LeftHand  -0.0749561 8.20971 -1.16901
RightShoulder  -0.895413 -6.13333 27.4726
RightArm  29.6037 3.52525 51.2139
RightForeArm  6.7668 28.6921 5.85085
RightHand  -0.0383668 4.17515 -0.739369
LeftUpLeg  -7.5416 -26.8979 3.09821
LeftLeg  18.561 -6.58418 -2.15424
LeftFoot  -13.2498 0.0542167 -1.56427
LeftToes  3.13772e-010 -3.14513e-011 3.96022e-013
300
root  -75.365 40.1999 -0.761695 178.84 40.7265 177.922
RightUpLeg  -11.1851 21.7308 1.28825
RightLeg  19.06 28.4335 7.19739
RightFoot  -12.0814 -0.0532447 4.28395
RightToes  -1.16417e-010 0 -3.6325e-017
Spine  4.13591 1.02318 7.69972
Spine1  7.45303 2.23253 -3.84659
HEad  -18.3988 -8.24715 7.00968
LeftShoulder1  -0.83712 5.66328 -32.5928
LeftArm  11.2194 21.7889 -38.5778
LeftForeArm  23.206 -26.769 -4.50315
LeftHand  -0.0455993 8.1688 0.00261228
RightShoulder  -1.00278 -6.43005 27.713
RightArm  30.7472 5.95907 51.5102
RightForeArm  5.84726 26.6374 5.4187
RightHand  -0.0192927 4.23865 -0.505281
LeftUpLeg  -6.15616 -20.4489 3.3006
LeftLeg  16.2077 -8.48486 -2.1244
LeftFoot  -13.0882 0.0322119 -3.01871
LeftToes  3.13772e-010 -3.14513e-011 3.96022e-013
301
root  -75.8839 40.32 -0.929033 178.532 46.7922 177.35
RightUpLeg  -11.4012 23.3847 0.231779
RightLeg  17.5177 30.996 6.65134
RightFoot  -12.5866 -0.0111612 7.13045
RightToes  -1.16417e-010 0 -3.6325e-017
Spine  4.89852 0.91618 4.90345
Spine1  7.40733 1.72162 -2.49359
HEad  -18.9791 -7.22019 7.98271
LeftShoulder1  -0.891516 5.7779 -33.0417
LeftArm  10.1807 22.2306 -38.1663
LeftForeArm  21.5121 -27.7863 -4.82752
LeftHand  -0.0191877 7.44632 0.797569
RightShoulder  -1.07912 -6.59484 28.3873
RightArm  30.9553 8.56752 51.3864
RightForeArm  3.96877 24.0528 4.94226
RightHand  -0.0813247 4.3181 -1.28131
LeftUpLeg  -4.98176 -12.2636 1.94921
LeftLeg  15.1329 -9.93387 -1.29389
LeftFoot  -12.2229 0.0642321 -0.888216
LeftToes  3.13772e-010 -3.14513e-011 3.96022e-013
302
root  -76.3984 40.4344 -1.08122 178.112 51.99 176.512
RightUpLeg  -12.4253 24.851 -1.2276
RightLeg  16.496 29.0995 5.61544
RightFoot  -11.4749 -0.0674256 6.59977
RightToes  -1.16417e-010 0 -3.6325e-017
Spine  5.28758 0.780413 2.31898
Spine1  7.38824 1.20909 -1.30103
HEad  -19.6182 -7.02271 8.08118
LeftShoulder1  -0.786813 5.5167 -32.8934
LeftArm  9.92061 22.1353 -38.0754
LeftForeArm  19.9492 -28.1509 -4.9959
LeftHand  -0.0337717 5.6968 -0.40936
RightShoulder  -1.06135 -6.54746 28.3341
RightArm  26.3521 9.39698 51.671
RightForeArm  4.27069 21.7199 4.81378
RightHand  -0.206973 3.6673 -2.88872
LeftUpLeg  -4.14836 -5.16864 0.678117
LeftLeg  13.2683 -11.5611 -0.414771
LeftFoot  -10.3628 0.0599767 0.410872
LeftToes  3.13772e-010 -3.14513e-011 3.96022e-013
